<?xml version="1.0" encoding="UTF-8"?>
<svg version="1.1" xmlns="http://www.w3.org/2000/svg" width="200" height="53">
<path d="M0 0 C2.61106596 0.35284675 4.55190182 0.69593338 6.75 2.1875 C8 4 8 4 8.4375 7.0625 C8.623125 8.031875 8.80875 9.00125 9 10 C10.33058992 10.6721255 11.6641884 11.33831306 13 12 C16.23976115 16.41496862 17.57063014 21.60479957 18.5078125 26.921875 C19.04042141 29.17066816 19.96498642 30.94249317 21 33 C21.375 36.0625 21.375 36.0625 21 39 C19.3125 40.9375 19.3125 40.9375 17 42 C14.375 41.875 14.375 41.875 12 41 C10 38 10 38 10 34 C10.66 34 11.32 34 12 34 C12.33 35.32 12.66 36.64 13 38 C14.98 37.505 14.98 37.505 17 37 C16.05066101 33.64566891 15.10251165 30.30753495 14 27 C9.71 27 5.42 27 1 27 C1.020625 25.700625 1.04125 24.40125 1.0625 23.0625 C1.0625 17.27422988 0.83897957 11.51693871 -1 6 C-0.72428861 3.99124558 -0.39764263 1.98821313 0 0 Z " fill="#040404" transform="translate(138,10)"/>
<path d="M0 0 C2.9375 1.6875 2.9375 1.6875 5 4 C5.8125 7.25 5.8125 7.25 6 10 C3.1875 10.1875 3.1875 10.1875 0 10 C-0.474375 9.505 -0.94875 9.01 -1.4375 8.5 C-3.08339692 6.59216358 -3.08339692 6.59216358 -6.6875 6.8125 C-7.780625 6.874375 -8.87375 6.93625 -10 7 C-10.16677282 10.41656024 -10.16677282 10.41656024 -10 14 C-8.17084359 16.23845015 -8.17084359 16.23845015 -5.5 16.3125 C-4.675 16.209375 -3.85 16.10625 -3 16 C-2.34 15.01 -1.68 14.02 -1 13 C2.625 12.8125 2.625 12.8125 6 13 C5.75310468 16.62113142 5.40367591 18.53324973 3 21.3125 C-0.99600957 23.56025538 -4.41830762 24.33677397 -9 24 C-12.41988038 22.8428004 -15.20305176 21.27405103 -17.16796875 18.1328125 C-18.60666167 14.44489544 -18.55654282 10.88884292 -18 7 C-13.98398433 -0.1052585 -7.58128359 -2.27750495 0 0 Z " fill="#383745" transform="translate(38,13)"/>
<path d="M0 0 C2.05078125 0.03255208 4.1015625 0.06510417 6.15234375 0.09765625 C7.30502504 2.99080996 8.44825118 5.88761112 9.58984375 8.78515625 C10.07807617 10.01008789 10.07807617 10.01008789 10.57617188 11.25976562 C12.11574144 15.18011288 13.5457927 18.90305674 14.15234375 23.09765625 C11.51234375 23.09765625 8.87234375 23.09765625 6.15234375 23.09765625 C5.82234375 22.10765625 5.49234375 21.11765625 5.15234375 20.09765625 C2.18168866 20.43993197 2.18168866 20.43993197 -0.84765625 21.09765625 C-1.17765625 21.75765625 -1.50765625 22.41765625 -1.84765625 23.09765625 C-4.48765625 23.09765625 -7.12765625 23.09765625 -9.84765625 23.09765625 C-5.59646198 0.29579609 -5.59646198 0.29579609 0 0 Z M1.15234375 12.09765625 C1.15234375 12.75765625 1.15234375 13.41765625 1.15234375 14.09765625 C1.81234375 14.09765625 2.47234375 14.09765625 3.15234375 14.09765625 C3.15234375 13.43765625 3.15234375 12.77765625 3.15234375 12.09765625 C2.49234375 12.09765625 1.83234375 12.09765625 1.15234375 12.09765625 Z " fill="#3F3D4F" transform="translate(56.84765625,12.90234375)"/>
<path d="M0 0 C2.64 0 5.28 0 8 0 C8.66 1.65 9.32 3.3 10 5 C10.66 5 11.32 5 12 5 C12.66 3.35 13.32 1.7 14 0 C16.64 0 19.28 0 22 0 C20.97603803 2.75682069 19.93604828 5.09711187 18.3125 7.5625 C16.83194948 9.82330584 16.83194948 9.82330584 17.0625 11.9375 C18.04372013 14.24702748 18.04372013 14.24702748 20.0625 17.0625 C22 20 22 20 22 23 C19.36 23 16.72 23 14 23 C13.71125 22.360625 13.4225 21.72125 13.125 21.0625 C12.17176549 18.84793921 12.17176549 18.84793921 10 18 C9.01 20.475 9.01 20.475 8 23 C5.36 23 2.72 23 0 23 C1.56641751 18.69235185 3.68336156 14.93828536 6 11 C5.566875 10.28972656 5.13375 9.57945313 4.6875 8.84765625 C3.8521875 7.46900391 3.8521875 7.46900391 3 6.0625 C2.443125 5.14597656 1.88625 4.22945312 1.3125 3.28515625 C0 1 0 1 0 0 Z " fill="#3D3C4A" transform="translate(158,13)"/>
<path d="M0 0 C5.61 0 11.22 0 17 0 C17 1.98 17 3.96 17 6 C13.7 6 10.4 6 7 6 C7 6.66 7 7.32 7 8 C9.64 8 12.28 8 15 8 C15 10.31 15 12.62 15 15 C12.36 15 9.72 15 7 15 C7 17.64 7 20.28 7 23 C4.69 23 2.38 23 0 23 C0 15.41 0 7.82 0 0 Z " fill="#3D3C4B" transform="translate(97,13)"/>
<path d="M0 0 C6.93 0 13.86 0 21 0 C21 1.98 21 3.96 21 6 C19.02 6 17.04 6 15 6 C15.01160156 7.14339844 15.02320312 8.28679688 15.03515625 9.46484375 C15.04453288 10.95572754 15.05363321 12.44661309 15.0625 13.9375 C15.07087891 14.69224609 15.07925781 15.44699219 15.08789062 16.22460938 C15.09652441 18.14994313 15.05224333 20.07535581 15 22 C14.67 22.33 14.34 22.66 14 23 C11.69 23 9.38 23 7 23 C7 17.39 7 11.78 7 6 C4.69 6 2.38 6 0 6 C0 4.02 0 2.04 0 0 Z " fill="#3D3C4B" transform="translate(73,13)"/>
<path d="M0 0 C2.64 0 5.28 0 8 0 C8 5.61 8 11.22 8 17 C11.63 17 15.26 17 19 17 C19 18.98 19 20.96 19 23 C12.73 23 6.46 23 0 23 C0 15.41 0 7.82 0 0 Z " fill="#3F3E4E" transform="translate(116,13)"/>
<path d="M0 0 C2.64 0 5.28 0 8 0 C8.66 1.65 9.32 3.3 10 5 C10.66 5 11.32 5 12 5 C12.66 3.35 13.32 1.7 14 0 C16.64 0 19.28 0 22 0 C20.8141763 3.37503669 19.72426311 5.64722731 17 8 C17.66 6.02 18.32 4.04 19 2 C15.20411134 2.54226981 13.52788007 4.20127563 11 7 C10.34 6.67 9.68 6.34 9 6 C8.67 7.98 8.34 9.96 8 12 C4.02502456 8.59287819 2.13206212 4.67239145 0 0 Z " fill="#3E3D4B" transform="translate(158,13)"/>
<path d="M0 0 C5.1708804 -0.31025282 8.71417 -0.06130715 13 3 C13.875 6.1875 13.875 6.1875 14 9 C11.125 9.125 11.125 9.125 8 9 C7.34 8.34 6.68 7.68 6 7 C6 6.01 6 5.02 6 4 C3.69 3.67 1.38 3.34 -1 3 C-0.67 2.01 -0.34 1.02 0 0 Z " fill="#3D3B4C" transform="translate(30,14)"/>
<path d="M0 0 C0.515625 0.309375 1.03125 0.61875 1.5625 0.9375 C4.66665423 2.29059287 7.65115007 2.61359424 11 3 C11 3.99 11 4.98 11 6 C7.29584707 8.46943529 5.37855495 8.46913089 1 8 C-0.9375 6 -0.9375 6 -2 4 C-1.34 2.68 -0.68 1.36 0 0 Z " fill="#413F50" transform="translate(25,28)"/>
<path d="M0 0 C3 3 3 3 3.328125 5.41015625 C3.30234375 6.28542969 3.2765625 7.16070313 3.25 8.0625 C3.23453125 8.94035156 3.2190625 9.81820313 3.203125 10.72265625 C3 13 3 13 2 15 C3.65 15 5.3 15 7 15 C7 15.33 7 15.66 7 16 C4.69 16 2.38 16 0 16 C0 10.72 0 5.44 0 0 Z " fill="#353441" transform="translate(116,20)"/>
<path d="M0 0 C0.66 1.32 1.32 2.64 2 4 C1.34 4.66 0.68 5.32 0 6 C-0.74276031 7.97080157 -0.74276031 7.97080157 -1 10 C-0.67 10.66 -0.34 11.32 0 12 C1.65 11.67 3.3 11.34 5 11 C4.67 11.99 4.34 12.98 4 14 C1.36 14 -1.28 14 -4 14 C-3.00956295 9.16371695 -2.04301154 4.52381127 0 0 Z " fill="#343340" transform="translate(51,22)"/>
<path d="M0 0 C2.64 0 5.28 0 8 0 C6.8141763 3.37503669 5.72426311 5.64722731 3 8 C3.66 6.02 4.32 4.04 5 2 C1.20411134 2.54226981 -0.47211993 4.20127563 -3 7 C-3.33 6.34 -3.66 5.68 -4 5 C-3.34 5 -2.68 5 -2 5 C-1.34 3.35 -0.68 1.7 0 0 Z " fill="#32303E" transform="translate(172,13)"/>
<path d="M0 0 C2.95183101 2.95183101 3.08663988 5.95511947 4 10 C1.36 10 -1.28 10 -4 10 C-3.505 9.54625 -3.01 9.0925 -2.5 8.625 C-0.77390663 7.12364481 -0.77390663 7.12364481 -1 5 C-0.34 5 0.32 5 1 5 C0.67 3.35 0.34 1.7 0 0 Z " fill="#363541" transform="translate(67,26)"/>
<path d="M0 0 C0.33 0 0.66 0 1 0 C1.33 4.62 1.66 9.24 2 14 C4.475 14.99 4.475 14.99 7 16 C7 16.33 7 16.66 7 17 C4.69 17 2.38 17 0 17 C0 11.39 0 5.78 0 0 Z " fill="#363442" transform="translate(80,19)"/>
<path d="M0 0 C2.97 0.495 2.97 0.495 6 1 C5.1875 2.9375 5.1875 2.9375 4 5 C3.01 5.33 2.02 5.66 1 6 C0.67 4.02 0.34 2.04 0 0 Z " fill="#41404F" transform="translate(171,28)"/>
<path d="M0 0 C0.66 0.66 1.32 1.32 2 2 C1.67 2.66 1.34 3.32 1 4 C0.34 4 -0.32 4 -1 4 C-1.33 5.65 -1.66 7.3 -2 9 C-2.33 9 -2.66 9 -3 9 C-2.25 2.25 -2.25 2.25 0 0 Z " fill="#2D2B33" transform="translate(23,16)"/>
</svg>
